<svg xmlns="http://www.w3.org/2000/svg" xmlns:xlink="http://www.w3.org/1999/xlink" width="150" zoomAndPan="magnify" viewBox="0 0 112.5 112.499997" height="150" preserveAspectRatio="xMidYMid meet" version="1.0"><defs><clipPath id="4f8777dfa6"><path d="M 5.25 5.25 L 106.796875 5.25 L 106.796875 106.796875 L 5.25 106.796875 Z M 5.25 5.25 " clip-rule="nonzero"/></clipPath></defs><g clip-path="url(#4f8777dfa6)"><path fill="#ffffff" d="M 56.007812 5.25 C 84.042969 5.25 106.769531 27.976562 106.769531 56.007812 C 106.769531 84.042969 84.042969 106.769531 56.007812 106.769531 C 27.976562 106.769531 5.25 84.042969 5.25 56.007812 C 5.25 27.976562 27.976562 5.25 56.007812 5.25 Z M 62.179688 23.199219 C 66.007812 23.199219 69.109375 26.300781 69.109375 30.125 C 69.109375 33.957031 66.007812 37.058594 62.179688 37.058594 C 58.355469 37.058594 55.246094 33.957031 55.246094 30.125 C 55.246094 26.300781 58.351562 23.199219 62.179688 23.199219 Z M 43.238281 49.058594 C 47.714844 39.996094 66.792969 37.054688 63.394531 49.464844 C 61.453125 56.554688 56.308594 75.367188 55.507812 78.523438 C 54.519531 82.429688 58.996094 82.636719 63.792969 80.5 C 59.714844 91.023438 39.121094 92.707031 43.523438 78.785156 C 43.523438 78.785156 49.355469 57.519531 50.949219 52.703125 C 52.714844 47.363281 46.707031 47.296875 43.238281 49.050781 Z M 56.015625 10.050781 C 30.632812 10.050781 10.058594 30.625 10.058594 56.003906 C 10.058594 81.386719 30.636719 101.957031 56.015625 101.957031 C 81.398438 101.957031 101.96875 81.382812 101.96875 56.003906 C 101.96875 30.621094 81.390625 10.050781 56.015625 10.050781 Z M 56.015625 10.050781 " fill-opacity="1" fill-rule="nonzero"/></g></svg>