<svg xmlns="http://www.w3.org/2000/svg" xmlns:xlink="http://www.w3.org/1999/xlink" width="500" zoomAndPan="magnify" viewBox="0 0 375 195.000001" height="260" preserveAspectRatio="xMidYMid meet" version="1.0"><defs><g/><clipPath id="7aaeb46d13"><path d="M 0.957031 0 L 374.042969 0 L 374.042969 194.003906 L 0.957031 194.003906 Z M 0.957031 0 " clip-rule="nonzero"/></clipPath><clipPath id="eee362a000"><path d="M 188.753906 0 L 326.796875 0 L 326.796875 124.609375 L 188.753906 124.609375 Z M 188.753906 0 " clip-rule="nonzero"/></clipPath></defs><g clip-path="url(#7aaeb46d13)"><path fill="#ffffff" d="M 0.957031 0 L 374.042969 0 L 374.042969 194.003906 L 0.957031 194.003906 Z M 0.957031 0 " fill-opacity="1" fill-rule="nonzero"/><path fill="#ffffff" d="M 0.957031 0 L 374.042969 0 L 374.042969 194.003906 L 0.957031 194.003906 Z M 0.957031 0 " fill-opacity="1" fill-rule="nonzero"/></g><g clip-path="url(#eee362a000)"><path fill="#05b0fc" d="M 290.394531 13.167969 L 260.886719 13.167969 L 260.886719 3.332031 C 260.886719 2.894531 260.800781 2.476562 260.636719 2.074219 C 260.46875 1.675781 260.234375 1.320312 259.925781 1.011719 C 259.617188 0.703125 259.261719 0.46875 258.863281 0.300781 C 258.460938 0.136719 258.042969 0.0507812 257.605469 0.0507812 C 257.171875 0.0507812 256.753906 0.136719 256.351562 0.300781 C 255.949219 0.46875 255.597656 0.703125 255.289062 1.011719 C 254.980469 1.320312 254.746094 1.675781 254.578125 2.074219 C 254.410156 2.476562 254.328125 2.894531 254.328125 3.332031 L 254.328125 13.167969 L 224.820312 13.167969 C 224.285156 13.167969 223.746094 13.195312 223.214844 13.246094 C 222.679688 13.300781 222.148438 13.378906 221.625 13.484375 C 221.097656 13.589844 220.578125 13.71875 220.0625 13.875 C 219.550781 14.03125 219.046875 14.210938 218.550781 14.417969 C 218.054688 14.625 217.570312 14.851562 217.09375 15.105469 C 216.621094 15.359375 216.164062 15.636719 215.714844 15.933594 C 215.269531 16.230469 214.839844 16.550781 214.425781 16.890625 C 214.007812 17.234375 213.613281 17.59375 213.234375 17.972656 C 212.851562 18.351562 212.492188 18.75 212.152344 19.164062 C 211.8125 19.578125 211.492188 20.007812 211.195312 20.457031 C 210.894531 20.902344 210.621094 21.363281 210.367188 21.835938 C 210.113281 22.308594 209.882812 22.792969 209.679688 23.289062 C 209.472656 23.785156 209.292969 24.289062 209.136719 24.800781 C 208.980469 25.316406 208.847656 25.835938 208.746094 26.363281 C 208.640625 26.890625 208.558594 27.417969 208.507812 27.953125 C 208.453125 28.488281 208.425781 29.023438 208.425781 29.558594 L 208.425781 88.574219 C 208.425781 89.113281 208.453125 89.648438 208.507812 90.183594 C 208.558594 90.714844 208.640625 91.246094 208.746094 91.773438 C 208.847656 92.300781 208.980469 92.820312 209.136719 93.332031 C 209.292969 93.847656 209.472656 94.351562 209.679688 94.847656 C 209.882812 95.34375 210.113281 95.828125 210.367188 96.300781 C 210.621094 96.773438 210.894531 97.234375 211.195312 97.679688 C 211.492188 98.125 211.8125 98.554688 212.152344 98.972656 C 212.492188 99.386719 212.851562 99.785156 213.234375 100.164062 C 213.613281 100.542969 214.007812 100.902344 214.425781 101.242188 C 214.839844 101.582031 215.269531 101.902344 215.714844 102.203125 C 216.164062 102.5 216.621094 102.777344 217.09375 103.027344 C 217.570312 103.28125 218.054688 103.511719 218.550781 103.71875 C 219.046875 103.921875 219.550781 104.105469 220.0625 104.257812 C 220.578125 104.414062 221.097656 104.546875 221.625 104.652344 C 222.148438 104.757812 222.679688 104.835938 223.214844 104.886719 C 223.746094 104.941406 224.285156 104.96875 224.820312 104.96875 L 242.738281 104.96875 L 254.878906 123.179688 C 255.027344 123.40625 255.203125 123.609375 255.402344 123.789062 C 255.601562 123.972656 255.820312 124.125 256.058594 124.253906 C 256.296875 124.378906 256.546875 124.476562 256.808594 124.542969 C 257.070312 124.609375 257.335938 124.640625 257.605469 124.640625 C 257.875 124.640625 258.140625 124.609375 258.40625 124.542969 C 258.667969 124.476562 258.914062 124.378906 259.152344 124.253906 C 259.390625 124.125 259.609375 123.972656 259.808594 123.789062 C 260.011719 123.609375 260.183594 123.40625 260.335938 123.179688 L 272.476562 104.96875 L 290.394531 104.96875 C 290.929688 104.96875 291.464844 104.941406 292 104.886719 C 292.535156 104.835938 293.0625 104.757812 293.589844 104.652344 C 294.117188 104.546875 294.636719 104.414062 295.152344 104.257812 C 295.664062 104.105469 296.167969 103.921875 296.664062 103.71875 C 297.160156 103.511719 297.644531 103.28125 298.117188 103.027344 C 298.589844 102.777344 299.050781 102.5 299.496094 102.203125 C 299.945312 101.902344 300.375 101.582031 300.789062 101.242188 C 301.203125 100.902344 301.601562 100.542969 301.980469 100.164062 C 302.359375 99.785156 302.71875 99.386719 303.0625 98.972656 C 303.402344 98.554688 303.722656 98.125 304.019531 97.679688 C 304.316406 97.234375 304.59375 96.773438 304.847656 96.300781 C 305.101562 95.828125 305.328125 95.34375 305.535156 94.847656 C 305.742188 94.351562 305.921875 93.847656 306.078125 93.332031 C 306.234375 92.820312 306.363281 92.300781 306.46875 91.773438 C 306.574219 91.246094 306.652344 90.714844 306.707031 90.183594 C 306.757812 89.648438 306.785156 89.113281 306.785156 88.574219 L 306.785156 29.558594 C 306.785156 29.023438 306.757812 28.488281 306.707031 27.953125 C 306.652344 27.417969 306.574219 26.890625 306.46875 26.363281 C 306.363281 25.835938 306.234375 25.316406 306.078125 24.800781 C 305.921875 24.289062 305.742188 23.785156 305.535156 23.289062 C 305.328125 22.792969 305.101562 22.308594 304.847656 21.835938 C 304.59375 21.363281 304.316406 20.902344 304.019531 20.457031 C 303.722656 20.007812 303.402344 19.578125 303.0625 19.164062 C 302.71875 18.75 302.359375 18.351562 301.980469 17.972656 C 301.601562 17.59375 301.203125 17.234375 300.789062 16.890625 C 300.375 16.550781 299.945312 16.230469 299.496094 15.933594 C 299.050781 15.636719 298.589844 15.359375 298.117188 15.105469 C 297.644531 14.851562 297.160156 14.625 296.664062 14.417969 C 296.167969 14.210938 295.664062 14.03125 295.152344 13.875 C 294.636719 13.71875 294.117188 13.589844 293.589844 13.484375 C 293.0625 13.378906 292.535156 13.300781 292 13.246094 C 291.464844 13.195312 290.929688 13.167969 290.394531 13.167969 Z M 300.230469 88.574219 C 300.230469 89.222656 300.164062 89.859375 300.039062 90.492188 C 299.914062 91.125 299.726562 91.742188 299.476562 92.339844 C 299.230469 92.933594 298.925781 93.5 298.570312 94.039062 C 298.210938 94.574219 297.800781 95.070312 297.34375 95.527344 C 296.890625 95.984375 296.390625 96.390625 295.855469 96.75 C 295.320312 97.109375 294.753906 97.414062 294.15625 97.660156 C 293.558594 97.90625 292.945312 98.09375 292.3125 98.222656 C 291.679688 98.347656 291.039062 98.410156 290.394531 98.410156 L 270.722656 98.410156 C 270.171875 98.414062 269.65625 98.542969 269.175781 98.800781 C 268.691406 99.058594 268.296875 99.417969 267.992188 99.871094 L 257.605469 115.453125 L 247.21875 99.871094 C 246.914062 99.417969 246.523438 99.058594 246.039062 98.800781 C 245.554688 98.542969 245.039062 98.414062 244.492188 98.410156 L 224.820312 98.410156 C 224.175781 98.410156 223.535156 98.347656 222.902344 98.222656 C 222.269531 98.09375 221.652344 97.90625 221.058594 97.660156 C 220.460938 97.414062 219.894531 97.109375 219.359375 96.75 C 218.820312 96.390625 218.324219 95.984375 217.867188 95.527344 C 217.410156 95.070312 217.003906 94.574219 216.644531 94.039062 C 216.285156 93.5 215.984375 92.933594 215.734375 92.339844 C 215.488281 91.742188 215.300781 91.125 215.175781 90.492188 C 215.046875 89.859375 214.984375 89.222656 214.984375 88.574219 L 214.984375 78.738281 L 300.230469 78.738281 Z M 300.230469 72.183594 L 214.984375 72.183594 L 214.984375 29.558594 C 214.984375 28.914062 215.046875 28.273438 215.175781 27.640625 C 215.300781 27.007812 215.488281 26.394531 215.734375 25.796875 C 215.984375 25.199219 216.285156 24.632812 216.644531 24.097656 C 217.003906 23.5625 217.410156 23.0625 217.867188 22.609375 C 218.324219 22.152344 218.820312 21.742188 219.359375 21.382812 C 219.894531 21.027344 220.460938 20.722656 221.058594 20.476562 C 221.652344 20.226562 222.269531 20.039062 222.902344 19.914062 C 223.535156 19.789062 224.175781 19.722656 224.820312 19.722656 L 290.394531 19.722656 C 291.039062 19.722656 291.679688 19.789062 292.3125 19.914062 C 292.945312 20.039062 293.558594 20.226562 294.15625 20.476562 C 294.753906 20.722656 295.320312 21.027344 295.855469 21.382812 C 296.390625 21.742188 296.890625 22.152344 297.34375 22.609375 C 297.800781 23.0625 298.210938 23.5625 298.570312 24.097656 C 298.925781 24.632812 299.230469 25.199219 299.476562 25.796875 C 299.726562 26.394531 299.914062 27.007812 300.039062 27.640625 C 300.164062 28.273438 300.230469 28.914062 300.230469 29.558594 Z M 244.492188 49.230469 C 244.492188 49.664062 244.449219 50.089844 244.367188 50.511719 C 244.28125 50.933594 244.15625 51.34375 243.992188 51.742188 C 243.828125 52.140625 243.625 52.515625 243.386719 52.875 C 243.148438 53.234375 242.875 53.5625 242.570312 53.867188 C 242.265625 54.171875 241.9375 54.445312 241.578125 54.683594 C 241.21875 54.921875 240.84375 55.125 240.445312 55.289062 C 240.046875 55.453125 239.636719 55.578125 239.214844 55.664062 C 238.792969 55.746094 238.367188 55.789062 237.933594 55.789062 C 237.503906 55.789062 237.078125 55.746094 236.65625 55.664062 C 236.234375 55.578125 235.824219 55.453125 235.425781 55.289062 C 235.027344 55.125 234.648438 54.921875 234.292969 54.683594 C 233.933594 54.445312 233.601562 54.171875 233.296875 53.867188 C 232.992188 53.5625 232.722656 53.234375 232.484375 52.875 C 232.242188 52.515625 232.042969 52.140625 231.875 51.742188 C 231.710938 51.34375 231.585938 50.933594 231.503906 50.511719 C 231.417969 50.089844 231.378906 49.664062 231.378906 49.230469 C 231.378906 48.800781 231.417969 48.375 231.503906 47.953125 C 231.585938 47.53125 231.710938 47.121094 231.875 46.722656 C 232.042969 46.324219 232.242188 45.945312 232.484375 45.589844 C 232.722656 45.230469 232.992188 44.898438 233.296875 44.59375 C 233.601562 44.289062 233.933594 44.019531 234.292969 43.78125 C 234.648438 43.539062 235.027344 43.339844 235.425781 43.171875 C 235.824219 43.007812 236.234375 42.882812 236.65625 42.800781 C 237.078125 42.714844 237.503906 42.675781 237.933594 42.675781 C 238.367188 42.675781 238.792969 42.714844 239.214844 42.800781 C 239.636719 42.882812 240.046875 43.007812 240.445312 43.171875 C 240.84375 43.339844 241.21875 43.539062 241.578125 43.78125 C 241.9375 44.019531 242.265625 44.289062 242.570312 44.59375 C 242.875 44.898438 243.148438 45.230469 243.386719 45.589844 C 243.625 45.945312 243.828125 46.324219 243.992188 46.722656 C 244.15625 47.121094 244.28125 47.53125 244.367188 47.953125 C 244.449219 48.375 244.492188 48.800781 244.492188 49.230469 Z M 283.835938 49.230469 C 283.835938 49.664062 283.792969 50.089844 283.710938 50.511719 C 283.625 50.933594 283.5 51.34375 283.335938 51.742188 C 283.171875 52.140625 282.96875 52.515625 282.730469 52.875 C 282.492188 53.234375 282.21875 53.5625 281.914062 53.867188 C 281.609375 54.171875 281.28125 54.445312 280.921875 54.683594 C 280.5625 54.921875 280.1875 55.125 279.789062 55.289062 C 279.390625 55.453125 278.980469 55.578125 278.558594 55.664062 C 278.136719 55.746094 277.710938 55.789062 277.277344 55.789062 C 276.847656 55.789062 276.421875 55.746094 276 55.664062 C 275.578125 55.578125 275.167969 55.453125 274.769531 55.289062 C 274.371094 55.125 273.992188 54.921875 273.636719 54.683594 C 273.277344 54.445312 272.945312 54.171875 272.640625 53.867188 C 272.335938 53.5625 272.066406 53.234375 271.828125 52.875 C 271.585938 52.515625 271.386719 52.140625 271.21875 51.742188 C 271.054688 51.34375 270.929688 50.933594 270.847656 50.511719 C 270.761719 50.089844 270.722656 49.664062 270.722656 49.230469 C 270.722656 48.800781 270.761719 48.375 270.847656 47.953125 C 270.929688 47.53125 271.054688 47.121094 271.21875 46.722656 C 271.386719 46.324219 271.585938 45.945312 271.828125 45.589844 C 272.066406 45.230469 272.335938 44.898438 272.640625 44.59375 C 272.945312 44.289062 273.277344 44.019531 273.636719 43.78125 C 273.992188 43.539062 274.371094 43.339844 274.769531 43.171875 C 275.167969 43.007812 275.578125 42.882812 276 42.800781 C 276.421875 42.714844 276.847656 42.675781 277.277344 42.675781 C 277.710938 42.675781 278.136719 42.714844 278.558594 42.800781 C 278.980469 42.882812 279.390625 43.007812 279.789062 43.171875 C 280.1875 43.339844 280.5625 43.539062 280.921875 43.78125 C 281.28125 44.019531 281.609375 44.289062 281.914062 44.59375 C 282.21875 44.898438 282.492188 45.230469 282.730469 45.589844 C 282.96875 45.945312 283.171875 46.324219 283.335938 46.722656 C 283.5 47.121094 283.625 47.53125 283.710938 47.953125 C 283.792969 48.375 283.835938 48.800781 283.835938 49.230469 Z M 195.3125 36.117188 L 195.3125 62.347656 C 195.3125 62.78125 195.230469 63.199219 195.0625 63.601562 C 194.894531 64.003906 194.660156 64.355469 194.351562 64.664062 C 194.042969 64.972656 193.691406 65.210938 193.289062 65.375 C 192.886719 65.542969 192.46875 65.625 192.035156 65.625 C 191.597656 65.625 191.179688 65.542969 190.777344 65.375 C 190.378906 65.210938 190.023438 64.972656 189.714844 64.664062 C 189.40625 64.355469 189.171875 64.003906 189.003906 63.601562 C 188.839844 63.199219 188.753906 62.78125 188.753906 62.347656 L 188.753906 36.117188 C 188.753906 35.683594 188.839844 35.265625 189.003906 34.863281 C 189.171875 34.460938 189.40625 34.105469 189.714844 33.796875 C 190.023438 33.492188 190.378906 33.253906 190.777344 33.085938 C 191.179688 32.921875 191.597656 32.839844 192.035156 32.839844 C 192.46875 32.839844 192.886719 32.921875 193.289062 33.085938 C 193.691406 33.253906 194.042969 33.492188 194.351562 33.796875 C 194.660156 34.105469 194.894531 34.460938 195.0625 34.863281 C 195.230469 35.265625 195.3125 35.683594 195.3125 36.117188 Z M 326.457031 36.117188 L 326.457031 62.347656 C 326.457031 62.78125 326.375 63.199219 326.210938 63.601562 C 326.042969 64.003906 325.804688 64.355469 325.5 64.664062 C 325.191406 64.972656 324.835938 65.210938 324.433594 65.375 C 324.035156 65.542969 323.613281 65.625 323.179688 65.625 C 322.746094 65.625 322.328125 65.542969 321.925781 65.375 C 321.523438 65.210938 321.167969 64.972656 320.863281 64.664062 C 320.554688 64.355469 320.316406 64.003906 320.152344 63.601562 C 319.984375 63.199219 319.902344 62.78125 319.902344 62.347656 L 319.902344 36.117188 C 319.902344 35.683594 319.984375 35.265625 320.152344 34.863281 C 320.316406 34.460938 320.554688 34.105469 320.863281 33.796875 C 321.167969 33.492188 321.523438 33.253906 321.925781 33.085938 C 322.328125 32.921875 322.746094 32.839844 323.179688 32.839844 C 323.613281 32.839844 324.035156 32.921875 324.433594 33.085938 C 324.835938 33.253906 325.191406 33.492188 325.5 33.796875 C 325.804688 34.105469 326.042969 34.460938 326.210938 34.863281 C 326.375 35.265625 326.457031 35.683594 326.457031 36.117188 Z M 326.457031 36.117188 " fill-opacity="1" fill-rule="nonzero"/></g><g fill="#000000" fill-opacity="1"><g transform="translate(0.956632, 189.683485)"><g><path d="M 34.578125 0 L 20.265625 0 L 20.265625 -55.703125 L 1.890625 -55.703125 L 1.890625 -67.640625 L 52.953125 -67.640625 L 52.953125 -55.703125 L 34.578125 -55.703125 Z M 34.578125 0 "/></g></g></g><g fill="#000000" fill-opacity="1"><g transform="translate(55.806205, 189.683485)"><g><path d="M 54.84375 -51.71875 L 54.84375 0 L 44.046875 0 L 42.15625 -6.625 L 41.40625 -6.625 C 39.757812 -3.976562 37.5 -2.050781 34.625 -0.84375 C 31.75 0.351562 28.703125 0.953125 25.484375 0.953125 C 19.921875 0.953125 15.46875 -0.546875 12.125 -3.546875 C 8.78125 -6.546875 7.109375 -11.363281 7.109375 -18 L 7.109375 -51.71875 L 21.21875 -51.71875 L 21.21875 -21.5 C 21.21875 -17.78125 21.878906 -14.988281 23.203125 -13.125 C 24.535156 -11.257812 26.65625 -10.328125 29.5625 -10.328125 C 33.851562 -10.328125 36.785156 -11.796875 38.359375 -14.734375 C 39.941406 -17.671875 40.734375 -21.882812 40.734375 -27.375 L 40.734375 -51.71875 Z M 54.84375 -51.71875 "/></g></g></g><g fill="#000000" fill-opacity="1"><g transform="translate(118.044834, 189.683485)"><g><path d="M 29.171875 -10.328125 C 30.753906 -10.328125 32.269531 -10.46875 33.71875 -10.75 C 35.175781 -11.03125 36.628906 -11.425781 38.078125 -11.9375 L 38.078125 -1.421875 C 36.566406 -0.722656 34.6875 -0.15625 32.4375 0.28125 C 30.195312 0.726562 27.753906 0.953125 25.109375 0.953125 C 22.015625 0.953125 19.25 0.445312 16.8125 -0.5625 C 14.382812 -1.570312 12.457031 -3.304688 11.03125 -5.765625 C 9.613281 -8.234375 8.90625 -11.710938 8.90625 -16.203125 L 8.90625 -41.109375 L 2.171875 -41.109375 L 2.171875 -47.078125 L 9.953125 -51.8125 L 14.015625 -62.71875 L 23.015625 -62.71875 L 23.015625 -51.71875 L 37.515625 -51.71875 L 37.515625 -41.109375 L 23.015625 -41.109375 L 23.015625 -16.203125 C 23.015625 -14.242188 23.582031 -12.773438 24.71875 -11.796875 C 25.863281 -10.816406 27.347656 -10.328125 29.171875 -10.328125 Z M 29.171875 -10.328125 "/></g></g></g><g fill="#000000" fill-opacity="1"><g transform="translate(159.158331, 189.683485)"><g><path d="M 54.375 -25.953125 C 54.375 -17.367188 52.113281 -10.738281 47.59375 -6.0625 C 43.082031 -1.382812 36.941406 0.953125 29.171875 0.953125 C 24.378906 0.953125 20.101562 -0.0859375 16.34375 -2.171875 C 12.582031 -4.265625 9.628906 -7.316406 7.484375 -11.328125 C 5.335938 -15.335938 4.265625 -20.210938 4.265625 -25.953125 C 4.265625 -34.546875 6.503906 -41.144531 10.984375 -45.75 C 15.472656 -50.363281 21.632812 -52.671875 29.46875 -52.671875 C 34.320312 -52.671875 38.613281 -51.628906 42.34375 -49.546875 C 46.070312 -47.460938 49.007812 -44.429688 51.15625 -40.453125 C 53.300781 -36.472656 54.375 -31.640625 54.375 -25.953125 Z M 18.65625 -25.953125 C 18.65625 -20.835938 19.492188 -16.96875 21.171875 -14.34375 C 22.847656 -11.726562 25.582031 -10.421875 29.375 -10.421875 C 33.09375 -10.421875 35.789062 -11.726562 37.46875 -14.34375 C 39.144531 -16.96875 39.984375 -20.835938 39.984375 -25.953125 C 39.984375 -31.066406 39.144531 -34.898438 37.46875 -37.453125 C 35.789062 -40.015625 33.054688 -41.296875 29.265625 -41.296875 C 25.546875 -41.296875 22.847656 -40.015625 21.171875 -37.453125 C 19.492188 -34.898438 18.65625 -31.066406 18.65625 -25.953125 Z M 18.65625 -25.953125 "/></g></g></g><g fill="#000000" fill-opacity="1"><g transform="translate(217.797165, 189.683485)"><g><path d="M 36.28125 -52.671875 C 36.976562 -52.671875 37.800781 -52.640625 38.75 -52.578125 C 39.695312 -52.515625 40.453125 -52.421875 41.015625 -52.296875 L 39.984375 -39.03125 C 39.472656 -39.15625 38.804688 -39.265625 37.984375 -39.359375 C 37.160156 -39.453125 36.4375 -39.5 35.8125 -39.5 C 33.40625 -39.5 31.097656 -39.070312 28.890625 -38.21875 C 26.679688 -37.375 24.894531 -36.003906 23.53125 -34.109375 C 22.175781 -32.210938 21.5 -29.625 21.5 -26.34375 L 21.5 0 L 7.390625 0 L 7.390625 -51.71875 L 18.09375 -51.71875 L 20.171875 -43.015625 L 20.84375 -43.015625 C 22.351562 -45.660156 24.4375 -47.929688 27.09375 -49.828125 C 29.75 -51.722656 32.8125 -52.671875 36.28125 -52.671875 Z M 36.28125 -52.671875 "/></g></g></g><g fill="#000000" fill-opacity="1"><g transform="translate(260.805283, 189.683485)"><g><path d="M 5.40625 -6.625 C 5.40625 -9.53125 6.191406 -11.566406 7.765625 -12.734375 C 9.347656 -13.910156 11.273438 -14.5 13.546875 -14.5 C 15.753906 -14.5 17.644531 -13.910156 19.21875 -12.734375 C 20.800781 -11.566406 21.59375 -9.53125 21.59375 -6.625 C 21.59375 -3.851562 20.800781 -1.847656 19.21875 -0.609375 C 17.644531 0.617188 15.753906 1.234375 13.546875 1.234375 C 11.273438 1.234375 9.347656 0.617188 7.765625 -0.609375 C 6.191406 -1.847656 5.40625 -3.851562 5.40625 -6.625 Z M 5.40625 -6.625 "/></g></g></g><g fill="#000000" fill-opacity="1"><g transform="translate(287.803768, 189.683485)"><g><path d="M 14.5 -72 C 16.582031 -72 18.378906 -71.507812 19.890625 -70.53125 C 21.410156 -69.550781 22.171875 -67.734375 22.171875 -65.078125 C 22.171875 -62.492188 21.410156 -60.695312 19.890625 -59.6875 C 18.378906 -58.675781 16.582031 -58.171875 14.5 -58.171875 C 12.34375 -58.171875 10.523438 -58.675781 9.046875 -59.6875 C 7.566406 -60.695312 6.828125 -62.492188 6.828125 -65.078125 C 6.828125 -67.734375 7.566406 -69.550781 9.046875 -70.53125 C 10.523438 -71.507812 12.34375 -72 14.5 -72 Z M 21.5 -51.71875 L 21.5 0 L 7.390625 0 L 7.390625 -51.71875 Z M 21.5 -51.71875 "/></g></g></g><g fill="#000000" fill-opacity="1"><g transform="translate(316.69691, 189.683485)"><g><path d="M 28.609375 -52.765625 C 35.554688 -52.765625 40.875 -51.265625 44.5625 -48.265625 C 48.257812 -45.265625 50.109375 -40.671875 50.109375 -34.484375 L 50.109375 0 L 40.265625 0 L 37.515625 -7.015625 L 37.140625 -7.015625 C 34.921875 -4.234375 32.582031 -2.207031 30.125 -0.9375 C 27.664062 0.320312 24.285156 0.953125 19.984375 0.953125 C 15.378906 0.953125 11.5625 -0.375 8.53125 -3.03125 C 5.5 -5.6875 3.984375 -9.820312 3.984375 -15.4375 C 3.984375 -20.9375 5.90625 -24.976562 9.75 -27.5625 C 13.601562 -30.15625 19.382812 -31.609375 27.09375 -31.921875 L 36.09375 -32.203125 L 36.09375 -34.484375 C 36.09375 -37.203125 35.378906 -39.191406 33.953125 -40.453125 C 32.535156 -41.710938 30.566406 -42.34375 28.046875 -42.34375 C 25.515625 -42.34375 23.046875 -41.976562 20.640625 -41.25 C 18.242188 -40.53125 15.847656 -39.632812 13.453125 -38.5625 L 8.8125 -48.125 C 11.53125 -49.507812 14.59375 -50.628906 18 -51.484375 C 21.40625 -52.335938 24.941406 -52.765625 28.609375 -52.765625 Z M 36.09375 -23.96875 L 30.59375 -23.78125 C 26.050781 -23.65625 22.894531 -22.832031 21.125 -21.3125 C 19.351562 -19.800781 18.46875 -17.8125 18.46875 -15.34375 C 18.46875 -13.195312 19.097656 -11.664062 20.359375 -10.75 C 21.628906 -9.832031 23.273438 -9.375 25.296875 -9.375 C 28.328125 -9.375 30.882812 -10.273438 32.96875 -12.078125 C 35.050781 -13.878906 36.09375 -16.421875 36.09375 -19.703125 Z M 36.09375 -23.96875 "/></g></g></g></svg>