<svg xmlns="http://www.w3.org/2000/svg" xmlns:xlink="http://www.w3.org/1999/xlink" width="150" zoomAndPan="magnify" viewBox="0 0 112.5 112.499997" height="150" preserveAspectRatio="xMidYMid meet" version="1.0"><defs><clipPath id="dc22759a8f"><path d="M 15 30 L 98 30 L 98 105.363281 L 15 105.363281 Z M 15 30 " clip-rule="nonzero"/></clipPath></defs><path fill="#ffffff" d="M 105.585938 41.359375 L 88.921875 29.101562 L 88.921875 14.480469 C 88.921875 12.1875 87.0625 10.332031 84.773438 10.332031 L 78.027344 10.332031 C 75.734375 10.332031 73.878906 12.191406 73.878906 14.480469 L 73.878906 18.03125 L 61.171875 8.6875 C 58.417969 6.652344 53.902344 6.652344 51.144531 8.6875 L 6.730469 41.359375 C 3.976562 43.386719 3.382812 47.308594 5.410156 50.066406 L 6.636719 51.734375 C 8.664062 54.492188 12.582031 55.089844 15.335938 53.0625 L 51.144531 26.707031 C 53.902344 24.679688 58.417969 24.679688 61.171875 26.707031 L 96.976562 53.0625 C 99.734375 55.089844 103.652344 54.488281 105.675781 51.734375 L 106.90625 50.066406 C 108.933594 47.308594 108.339844 43.386719 105.585938 41.359375 Z M 105.585938 41.359375 " fill-opacity="1" fill-rule="nonzero"/><g clip-path="url(#dc22759a8f)"><path fill="#ffffff" d="M 92.300781 55.351562 L 61.164062 32.339844 C 58.410156 30.304688 53.910156 30.304688 51.15625 32.339844 L 20.019531 55.351562 C 17.265625 57.390625 15.011719 60.367188 15.011719 61.980469 L 15.011719 95.34375 C 15.011719 100.761719 19.65625 105.152344 25.386719 105.152344 L 44.402344 105.152344 L 44.402344 75.640625 C 44.402344 73.363281 46.269531 71.496094 48.546875 71.496094 L 63.765625 71.496094 C 66.042969 71.496094 67.910156 73.363281 67.910156 75.640625 L 67.910156 105.152344 L 86.929688 105.152344 C 92.65625 105.152344 97.296875 100.761719 97.296875 95.34375 L 97.296875 61.980469 C 97.300781 60.367188 95.054688 57.390625 92.300781 55.351562 Z M 92.300781 55.351562 " fill-opacity="1" fill-rule="nonzero"/></g></svg>