<svg xmlns="http://www.w3.org/2000/svg" xmlns:xlink="http://www.w3.org/1999/xlink" width="150" zoomAndPan="magnify" viewBox="0 0 112.5 112.499997" height="150" preserveAspectRatio="xMidYMid meet" version="1.0"><defs><clipPath id="157f1329f5"><path d="M 15 5.300781 L 97 5.300781 L 97 106.847656 L 15 106.847656 Z M 15 5.300781 " clip-rule="nonzero"/></clipPath></defs><g clip-path="url(#157f1329f5)"><path fill="#ffffff" d="M 93.238281 106.695312 L 18.757812 106.695312 C 16.691406 106.695312 15.007812 104.980469 15.007812 102.867188 L 15.007812 9.128906 C 15.007812 7.015625 16.691406 5.300781 18.757812 5.300781 L 93.230469 5.300781 C 95.296875 5.300781 96.984375 7.015625 96.984375 9.128906 L 96.984375 102.84375 C 96.992188 103.886719 96.597656 104.863281 95.871094 105.589844 C 95.164062 106.300781 94.230469 106.695312 93.238281 106.695312 Z M 19.648438 102.054688 L 92.34375 102.054688 L 92.34375 9.941406 L 19.648438 9.941406 Z M 19.648438 102.054688 " fill-opacity="1" fill-rule="nonzero"/></g><path fill="#ffffff" d="M 58.761719 49.75 L 31.226562 49.75 C 30.035156 49.75 29.058594 50.722656 29.058594 51.914062 C 29.058594 53.105469 30.035156 54.078125 31.226562 54.078125 L 58.761719 54.078125 C 59.953125 54.078125 60.925781 53.105469 60.925781 51.914062 C 60.925781 50.722656 59.953125 49.75 58.761719 49.75 Z M 58.761719 49.75 " fill-opacity="1" fill-rule="nonzero"/><path fill="#ffffff" d="M 85.503906 45.617188 C 84.523438 44.90625 83.0625 45.015625 82.242188 45.882812 L 75.289062 53.214844 L 73.308594 50.816406 C 72.542969 49.894531 71.183594 49.765625 70.261719 50.53125 C 69.339844 51.296875 69.210938 52.65625 69.976562 53.578125 L 73.546875 57.890625 C 73.972656 58.410156 74.59375 58.671875 75.21875 58.671875 C 75.707031 58.671875 76.195312 58.511719 76.601562 58.179688 C 76.734375 58.070312 76.84375 57.953125 76.945312 57.824219 C 76.96875 57.800781 76.996094 57.777344 77.019531 57.753906 L 85.824219 48.472656 C 86.621094 47.621094 86.488281 46.335938 85.503906 45.617188 Z M 85.503906 45.617188 " fill-opacity="1" fill-rule="nonzero"/><path fill="#ffffff" d="M 58.761719 67.050781 L 31.226562 67.050781 C 30.035156 67.050781 29.058594 68.023438 29.058594 69.214844 C 29.058594 70.40625 30.035156 71.382812 31.226562 71.382812 L 58.761719 71.382812 C 59.953125 71.382812 60.925781 70.40625 60.925781 69.214844 C 60.925781 68.023438 59.953125 67.050781 58.761719 67.050781 Z M 58.761719 67.050781 " fill-opacity="1" fill-rule="nonzero"/><path fill="#ffffff" d="M 85.503906 63.011719 C 84.523438 62.300781 83.0625 62.410156 82.242188 63.277344 L 75.289062 70.609375 L 73.308594 68.210938 C 72.542969 67.289062 71.183594 67.160156 70.261719 67.925781 C 69.339844 68.691406 69.210938 70.050781 69.976562 70.972656 L 73.546875 75.285156 C 73.972656 75.804688 74.59375 76.066406 75.21875 76.066406 C 75.707031 76.066406 76.195312 75.90625 76.601562 75.574219 C 76.734375 75.464844 76.84375 75.347656 76.945312 75.21875 C 76.96875 75.195312 76.996094 75.171875 77.019531 75.148438 L 85.824219 65.867188 C 86.613281 65.007812 86.488281 63.730469 85.503906 63.011719 Z M 85.503906 63.011719 " fill-opacity="1" fill-rule="nonzero"/><path fill="#ffffff" d="M 58.761719 84.398438 L 31.226562 84.398438 C 30.035156 84.398438 29.058594 85.371094 29.058594 86.5625 C 29.058594 87.753906 30.035156 88.730469 31.226562 88.730469 L 58.761719 88.730469 C 59.953125 88.730469 60.925781 87.753906 60.925781 86.5625 C 60.925781 85.371094 59.960938 84.398438 58.761719 84.398438 Z M 58.761719 84.398438 " fill-opacity="1" fill-rule="nonzero"/><path fill="#ffffff" d="M 85.503906 80.359375 C 84.523438 79.648438 83.0625 79.757812 82.242188 80.625 L 75.289062 87.957031 L 73.308594 85.558594 C 72.542969 84.636719 71.183594 84.507812 70.261719 85.273438 C 69.339844 86.039062 69.210938 87.398438 69.976562 88.320312 L 73.546875 92.636719 C 73.972656 93.152344 74.59375 93.417969 75.21875 93.417969 C 75.707031 93.417969 76.195312 93.253906 76.601562 92.921875 C 76.734375 92.8125 76.84375 92.695312 76.945312 92.566406 C 76.96875 92.542969 76.996094 92.519531 77.019531 92.496094 L 85.824219 83.214844 C 86.621094 82.355469 86.488281 81.078125 85.503906 80.359375 Z M 85.503906 80.359375 " fill-opacity="1" fill-rule="nonzero"/><path fill="#ffffff" d="M 43.347656 44.472656 C 35.480469 44.472656 29.082031 38.070312 29.082031 30.226562 C 29.082031 22.359375 35.488281 15.964844 43.347656 15.964844 C 51.210938 15.964844 57.601562 22.367188 57.601562 30.226562 C 57.609375 38.09375 51.203125 44.472656 43.347656 44.472656 Z M 43.347656 19.128906 C 37.226562 19.128906 32.253906 24.101562 32.253906 30.21875 C 32.253906 36.335938 37.226562 41.300781 43.347656 41.300781 C 49.464844 41.300781 54.4375 36.328125 54.4375 30.210938 C 54.4375 24.101562 49.457031 19.128906 43.347656 19.128906 Z M 43.347656 19.128906 " fill-opacity="1" fill-rule="nonzero"/><path fill="#ffffff" d="M 45.679688 33.589844 L 42.710938 26.265625 C 42.574219 25.902344 42.464844 25.601562 42.363281 25.378906 C 42.253906 25.128906 42.132812 24.882812 41.96875 24.65625 C 41.792969 24.394531 41.550781 24.1875 41.273438 24.023438 C 40.972656 23.855469 40.609375 23.777344 40.199219 23.777344 C 39.789062 23.777344 39.425781 23.863281 39.121094 24.023438 C 38.828125 24.195312 38.589844 24.410156 38.410156 24.679688 C 38.265625 24.914062 38.109375 25.199219 37.976562 25.53125 C 37.871094 25.832031 37.761719 26.082031 37.675781 26.296875 L 34.777344 33.683594 C 34.660156 33.992188 34.558594 34.234375 34.503906 34.410156 C 34.445312 34.628906 34.398438 34.851562 34.398438 35.054688 C 34.398438 35.472656 34.574219 35.871094 34.898438 36.183594 C 35.226562 36.492188 35.621094 36.652344 36.058594 36.652344 C 36.71875 36.652344 37.074219 36.375 37.242188 36.128906 C 37.429688 35.878906 37.628906 35.464844 37.855469 34.835938 L 38.265625 33.738281 L 42.117188 33.738281 L 42.519531 34.804688 L 42.527344 34.8125 C 42.601562 34.992188 42.695312 35.207031 42.78125 35.425781 C 42.898438 35.703125 43.011719 35.910156 43.136719 36.058594 C 43.277344 36.238281 43.445312 36.375 43.65625 36.476562 C 43.863281 36.578125 44.105469 36.636719 44.375 36.636719 C 44.839844 36.636719 45.25 36.46875 45.566406 36.144531 C 45.890625 35.820312 46.0625 35.433594 46.0625 35.023438 C 46.082031 34.691406 45.960938 34.234375 45.679688 33.589844 Z M 41.09375 30.875 L 39.300781 30.875 L 40.191406 28.394531 Z M 41.09375 30.875 " fill-opacity="1" fill-rule="nonzero"/><path fill="#ffffff" d="M 51.976562 28.988281 L 50.59375 28.988281 L 50.59375 27.707031 C 50.59375 27.023438 50.035156 26.476562 49.363281 26.476562 L 49.332031 26.476562 C 48.652344 26.476562 48.101562 27.03125 48.101562 27.707031 L 48.101562 28.988281 L 46.734375 28.988281 C 46.054688 28.988281 45.503906 29.546875 45.503906 30.21875 C 45.503906 30.898438 46.0625 31.449219 46.734375 31.449219 L 48.101562 31.449219 L 48.101562 32.71875 C 48.101562 33.398438 48.660156 33.945312 49.332031 33.945312 L 49.363281 33.945312 C 50.042969 33.945312 50.59375 33.390625 50.59375 32.71875 L 50.59375 31.449219 L 51.976562 31.449219 C 52.65625 31.449219 53.207031 30.890625 53.207031 30.21875 C 53.214844 29.546875 52.65625 28.988281 51.976562 28.988281 Z M 51.976562 28.988281 " fill-opacity="1" fill-rule="nonzero"/></svg>