<svg xmlns="http://www.w3.org/2000/svg" xmlns:xlink="http://www.w3.org/1999/xlink" width="150" zoomAndPan="magnify" viewBox="0 0 112.5 112.499997" height="150" preserveAspectRatio="xMidYMid meet" version="1.0"><defs><clipPath id="de13bc22f5"><path d="M 2.382812 17 L 109.90625 17 L 109.90625 101 L 2.382812 101 Z M 2.382812 17 " clip-rule="nonzero"/></clipPath></defs><g clip-path="url(#de13bc22f5)"><path fill="#ffffff" d="M 107.65625 23.808594 C 106.59375 23.808594 105.738281 24.664062 105.738281 25.726562 L 105.738281 96.960938 L 61.066406 96.960938 C 66.734375 92.625 79.273438 85.394531 100.152344 84.9375 L 102.023438 84.898438 L 102.023438 17.308594 L 100.230469 17.191406 C 99.960938 17.171875 93.402344 16.773438 84.488281 19.0625 C 76.664062 21.070312 65.535156 25.621094 55.988281 35.859375 C 46.441406 25.621094 35.3125 21.070312 27.488281 19.0625 C 18.574219 16.773438 12.015625 17.171875 11.746094 17.191406 L 9.953125 17.308594 L 9.953125 84.898438 L 11.824219 84.9375 C 32.703125 85.394531 45.242188 92.625 50.910156 96.960938 L 6.230469 96.960938 L 6.230469 25.726562 C 6.230469 24.664062 5.371094 23.808594 4.3125 23.808594 C 3.25 23.808594 2.402344 24.664062 2.402344 25.726562 L 2.402344 100.800781 L 109.574219 100.800781 L 109.574219 25.726562 C 109.574219 24.664062 108.71875 23.808594 107.65625 23.808594 Z M 54.070312 94.523438 C 48.476562 89.972656 35.691406 82.0625 13.78125 81.167969 L 13.78125 20.992188 C 19.722656 21.101562 39.257812 22.765625 54.070312 39.4375 Z M 57.90625 39.4375 C 66.980469 29.226562 77.785156 24.761719 85.304688 22.804688 C 91.015625 21.324219 95.75 21.023438 98.195312 20.984375 L 98.195312 81.15625 C 76.285156 82.054688 63.5 89.964844 57.90625 94.515625 Z M 57.90625 39.4375 " fill-opacity="1" fill-rule="nonzero"/></g><path fill="#ffffff" d="M 49.527344 43.96875 C 31.453125 30.804688 20.433594 31.164062 19.976562 31.183594 C 18.925781 31.234375 18.117188 32.121094 18.15625 33.171875 C 18.195312 34.222656 19.082031 35.050781 20.144531 35.003906 C 20.25 35.003906 30.441406 34.796875 47.269531 47.054688 C 47.609375 47.300781 48 47.425781 48.398438 47.425781 C 48.992188 47.425781 49.578125 47.152344 49.949219 46.636719 C 50.570312 45.789062 50.375 44.589844 49.527344 43.96875 Z M 49.527344 43.96875 " fill-opacity="1" fill-rule="nonzero"/><path fill="#ffffff" d="M 49.527344 54.644531 C 31.453125 41.472656 20.433594 41.832031 19.976562 41.863281 C 18.925781 41.910156 18.117188 42.796875 18.15625 43.851562 C 18.195312 44.902344 19.089844 45.730469 20.144531 45.683594 C 20.242188 45.683594 30.441406 45.476562 47.269531 57.734375 C 47.609375 57.976562 48 58.105469 48.398438 58.105469 C 48.992188 58.105469 49.578125 57.832031 49.949219 57.316406 C 50.570312 56.46875 50.375 55.269531 49.527344 54.644531 Z M 49.527344 54.644531 " fill-opacity="1" fill-rule="nonzero"/><path fill="#ffffff" d="M 49.527344 65.324219 C 31.453125 52.152344 20.433594 52.511719 19.976562 52.53125 C 18.925781 52.578125 18.117188 53.464844 18.15625 54.519531 C 18.195312 55.570312 19.082031 56.390625 20.144531 56.351562 C 20.25 56.351562 30.441406 56.144531 47.269531 68.402344 C 47.609375 68.644531 48 68.773438 48.398438 68.773438 C 48.992188 68.773438 49.578125 68.5 49.949219 67.984375 C 50.570312 67.136719 50.375 65.9375 49.527344 65.324219 Z M 49.527344 65.324219 " fill-opacity="1" fill-rule="nonzero"/><path fill="#ffffff" d="M 49.527344 75.992188 C 31.453125 62.828125 20.433594 63.191406 19.976562 63.210938 C 18.925781 63.257812 18.117188 64.144531 18.15625 65.199219 C 18.195312 66.25 19.089844 67.078125 20.144531 67.027344 C 20.242188 67.027344 30.441406 66.824219 47.269531 79.082031 C 47.609375 79.324219 48 79.453125 48.398438 79.453125 C 48.992188 79.453125 49.578125 79.179688 49.949219 78.664062 C 50.570312 77.816406 50.375 76.617188 49.527344 75.992188 Z M 49.527344 75.992188 " fill-opacity="1" fill-rule="nonzero"/><path fill="#ffffff" d="M 92 31.183594 C 91.542969 31.164062 80.523438 30.804688 62.449219 43.96875 C 61.589844 44.589844 61.40625 45.789062 62.027344 46.644531 C 62.398438 47.164062 62.984375 47.4375 63.578125 47.4375 C 63.96875 47.4375 64.367188 47.320312 64.707031 47.066406 C 81.484375 34.835938 91.667969 35.003906 91.832031 35.011719 C 92.886719 35.050781 93.773438 34.242188 93.832031 33.191406 C 93.878906 32.128906 93.0625 31.234375 92 31.183594 Z M 92 31.183594 " fill-opacity="1" fill-rule="nonzero"/><path fill="#ffffff" d="M 92 41.863281 C 91.542969 41.84375 80.523438 41.484375 62.449219 54.644531 C 61.589844 55.269531 61.40625 56.46875 62.027344 57.324219 C 62.398438 57.839844 62.984375 58.113281 63.578125 58.113281 C 63.96875 58.113281 64.367188 57.996094 64.707031 57.742188 C 81.484375 45.527344 91.667969 45.683594 91.832031 45.691406 C 92.886719 45.742188 93.773438 44.921875 93.832031 43.871094 C 93.878906 42.808594 93.0625 41.910156 92 41.863281 Z M 92 41.863281 " fill-opacity="1" fill-rule="nonzero"/><path fill="#ffffff" d="M 92 52.53125 C 91.542969 52.511719 80.523438 52.152344 62.449219 65.3125 C 61.589844 65.9375 61.40625 67.136719 62.027344 67.992188 C 62.398438 68.511719 62.984375 68.78125 63.578125 68.78125 C 63.96875 68.78125 64.367188 68.664062 64.707031 68.414062 C 81.484375 56.195312 91.667969 56.351562 91.832031 56.359375 C 92.886719 56.398438 93.773438 55.589844 93.832031 54.539062 C 93.878906 53.476562 93.0625 52.578125 92 52.53125 Z M 92 52.53125 " fill-opacity="1" fill-rule="nonzero"/><path fill="#ffffff" d="M 92 63.210938 C 91.542969 63.191406 80.523438 62.828125 62.449219 75.992188 C 61.589844 76.617188 61.40625 77.816406 62.027344 78.671875 C 62.398438 79.1875 62.984375 79.460938 63.578125 79.460938 C 63.96875 79.460938 64.367188 79.34375 64.707031 79.089844 C 81.484375 66.875 91.667969 67.027344 91.832031 67.039062 C 92.886719 67.078125 93.773438 66.269531 93.832031 65.21875 C 93.878906 64.15625 93.0625 63.257812 92 63.210938 Z M 92 63.210938 " fill-opacity="1" fill-rule="nonzero"/></svg>