<svg xmlns="http://www.w3.org/2000/svg" xmlns:xlink="http://www.w3.org/1999/xlink" width="150" zoomAndPan="magnify" viewBox="0 0 112.5 112.499997" height="150" preserveAspectRatio="xMidYMid meet" version="1.0"><defs><clipPath id="c8a772a164"><path d="M 30 4.351562 L 82 4.351562 L 82 58 L 30 58 Z M 30 4.351562 " clip-rule="nonzero"/></clipPath><clipPath id="08361defc3"><path d="M 9 58 L 103 58 L 103 107.390625 L 9 107.390625 Z M 9 58 " clip-rule="nonzero"/></clipPath></defs><g clip-path="url(#c8a772a164)"><path fill="#ffffff" d="M 56 57.933594 C 69.828125 57.933594 81.074219 43.253906 81.074219 29.429688 C 81.074219 15.601562 69.828125 4.351562 56 4.351562 C 42.171875 4.351562 30.921875 15.601562 30.921875 29.429688 C 30.921875 43.253906 42.171875 57.933594 56 57.933594 Z M 56 57.933594 " fill-opacity="1" fill-rule="nonzero"/></g><g clip-path="url(#08361defc3)"><path fill="#ffffff" d="M 74.824219 58.1875 C 69.960938 61.894531 63.890625 64.101562 57.316406 64.101562 L 54.679688 64.101562 C 48.105469 64.101562 42.035156 61.894531 37.171875 58.1875 C 21.289062 60.757812 9.160156 74.523438 9.160156 91.128906 C 9.160156 100.25 30.128906 107.648438 56 107.648438 C 81.867188 107.648438 102.835938 100.25 102.835938 91.128906 C 102.835938 74.523438 90.707031 60.757812 74.824219 58.1875 Z M 74.824219 58.1875 " fill-opacity="1" fill-rule="nonzero"/></g></svg>